<svg width="10" height="11" viewBox="0 0 10 11" fill="none" xmlns="http://www.w3.org/2000/svg">
<g id="vuesax/linear/star">
<g id="star">
<path id="Vector" d="M5.72083 1.9625L6.45417 3.42917C6.55417 3.63333 6.82083 3.82917 7.04583 3.86667L8.375 4.0875C9.225 4.22917 9.425 4.84583 8.8125 5.45416L7.77917 6.4875C7.60417 6.6625 7.50833 7 7.5625 7.24166L7.85833 8.52083C8.09167 9.53333 7.55417 9.925 6.65833 9.39583L5.4125 8.65833C5.1875 8.525 4.81667 8.525 4.5875 8.65833L3.34167 9.39583C2.45 9.925 1.90833 9.52917 2.14167 8.52083L2.4375 7.24166C2.49167 7 2.39583 6.6625 2.22083 6.4875L1.1875 5.45416C0.579167 4.84583 0.775 4.22917 1.625 4.0875L2.95417 3.86667C3.175 3.82917 3.44167 3.63333 3.54167 3.42917L4.275 1.9625C4.675 1.16667 5.325 1.16667 5.72083 1.9625Z" fill="#FBBE21"/>
</g>
</g>
</svg>
